<mxfile host="app.diagrams.net" modified="2024-05-14T11:37:21.499Z" agent="Mozilla/5.0 (Windows NT 10.0; Win64; x64) AppleWebKit/537.36 (KHTML, like Gecko) Chrome/124.0.0.0 Safari/537.36" etag="N0nfQkdMagYc-tL4YbH-" version="24.4.0" type="github">
  <diagram name="Page-1" id="wbZJzkOH9JMcBuO1v7ie">
    <mxGraphModel dx="8340" dy="4226" grid="1" gridSize="10" guides="1" tooltips="1" connect="1" arrows="1" fold="1" page="1" pageScale="1" pageWidth="850" pageHeight="1100" math="0" shadow="0">
      <root>
        <mxCell id="0" />
        <mxCell id="1" parent="0" />
        <mxCell id="tVKeyrfUWqHwYo1ynpqy-5" value="Tuff" style="rounded=0;whiteSpace=wrap;html=1;" vertex="1" parent="1">
          <mxGeometry x="765" y="730" width="120" height="60" as="geometry" />
        </mxCell>
        <mxCell id="tVKeyrfUWqHwYo1ynpqy-8" value="Andesite" style="rounded=0;whiteSpace=wrap;html=1;" vertex="1" parent="1">
          <mxGeometry x="615" y="460" width="120" height="60" as="geometry" />
        </mxCell>
        <mxCell id="tVKeyrfUWqHwYo1ynpqy-9" value="Diorite" style="rounded=0;whiteSpace=wrap;html=1;" vertex="1" parent="1">
          <mxGeometry x="765" y="460" width="120" height="60" as="geometry" />
        </mxCell>
        <mxCell id="tVKeyrfUWqHwYo1ynpqy-10" value="Lava" style="rounded=0;whiteSpace=wrap;html=1;" vertex="1" parent="1">
          <mxGeometry x="915" y="460" width="120" height="60" as="geometry" />
        </mxCell>
        <mxCell id="tVKeyrfUWqHwYo1ynpqy-11" value="Crush" style="ellipse;whiteSpace=wrap;html=1;" vertex="1" parent="1">
          <mxGeometry x="765" y="820" width="120" height="80" as="geometry" />
        </mxCell>
        <mxCell id="tVKeyrfUWqHwYo1ynpqy-12" value="" style="endArrow=classic;html=1;rounded=0;exitX=0.5;exitY=1;exitDx=0;exitDy=0;entryX=0.5;entryY=0;entryDx=0;entryDy=0;" edge="1" parent="1" source="tVKeyrfUWqHwYo1ynpqy-5" target="tVKeyrfUWqHwYo1ynpqy-11">
          <mxGeometry width="50" height="50" relative="1" as="geometry">
            <mxPoint x="805" y="870" as="sourcePoint" />
            <mxPoint x="855" y="820" as="targetPoint" />
          </mxGeometry>
        </mxCell>
        <mxCell id="tVKeyrfUWqHwYo1ynpqy-14" value="Mix" style="ellipse;whiteSpace=wrap;html=1;" vertex="1" parent="1">
          <mxGeometry x="765" y="610" width="120" height="80" as="geometry" />
        </mxCell>
        <mxCell id="tVKeyrfUWqHwYo1ynpqy-15" value="" style="endArrow=classic;html=1;rounded=0;exitX=0.5;exitY=1;exitDx=0;exitDy=0;entryX=0.5;entryY=0;entryDx=0;entryDy=0;" edge="1" parent="1" source="tVKeyrfUWqHwYo1ynpqy-8" target="tVKeyrfUWqHwYo1ynpqy-14">
          <mxGeometry width="50" height="50" relative="1" as="geometry">
            <mxPoint x="805" y="670" as="sourcePoint" />
            <mxPoint x="855" y="620" as="targetPoint" />
          </mxGeometry>
        </mxCell>
        <mxCell id="tVKeyrfUWqHwYo1ynpqy-16" value="" style="endArrow=classic;html=1;rounded=0;exitX=0.5;exitY=1;exitDx=0;exitDy=0;entryX=0.5;entryY=0;entryDx=0;entryDy=0;" edge="1" parent="1" source="tVKeyrfUWqHwYo1ynpqy-9" target="tVKeyrfUWqHwYo1ynpqy-14">
          <mxGeometry width="50" height="50" relative="1" as="geometry">
            <mxPoint x="805" y="670" as="sourcePoint" />
            <mxPoint x="855" y="620" as="targetPoint" />
          </mxGeometry>
        </mxCell>
        <mxCell id="tVKeyrfUWqHwYo1ynpqy-17" value="" style="endArrow=classic;html=1;rounded=0;exitX=0.5;exitY=1;exitDx=0;exitDy=0;entryX=0.5;entryY=0;entryDx=0;entryDy=0;" edge="1" parent="1" source="tVKeyrfUWqHwYo1ynpqy-10" target="tVKeyrfUWqHwYo1ynpqy-14">
          <mxGeometry width="50" height="50" relative="1" as="geometry">
            <mxPoint x="805" y="670" as="sourcePoint" />
            <mxPoint x="855" y="620" as="targetPoint" />
          </mxGeometry>
        </mxCell>
        <mxCell id="tVKeyrfUWqHwYo1ynpqy-18" value="" style="endArrow=classic;html=1;rounded=0;exitX=0.5;exitY=1;exitDx=0;exitDy=0;entryX=0.5;entryY=0;entryDx=0;entryDy=0;" edge="1" parent="1" source="tVKeyrfUWqHwYo1ynpqy-14" target="tVKeyrfUWqHwYo1ynpqy-5">
          <mxGeometry width="50" height="50" relative="1" as="geometry">
            <mxPoint x="805" y="770" as="sourcePoint" />
            <mxPoint x="855" y="720" as="targetPoint" />
          </mxGeometry>
        </mxCell>
        <mxCell id="tVKeyrfUWqHwYo1ynpqy-19" value="Cobblestone" style="rounded=0;whiteSpace=wrap;html=1;" vertex="1" parent="1">
          <mxGeometry x="765" y="-400" width="120" height="60" as="geometry" />
        </mxCell>
        <mxCell id="tVKeyrfUWqHwYo1ynpqy-20" value="Quartz" style="rounded=0;whiteSpace=wrap;html=1;" vertex="1" parent="1">
          <mxGeometry x="675" y="140" width="120" height="60" as="geometry" />
        </mxCell>
        <mxCell id="tVKeyrfUWqHwYo1ynpqy-21" value="Mix" style="ellipse;whiteSpace=wrap;html=1;" vertex="1" parent="1">
          <mxGeometry x="765" y="270" width="120" height="80" as="geometry" />
        </mxCell>
        <mxCell id="tVKeyrfUWqHwYo1ynpqy-22" value="" style="endArrow=classic;html=1;rounded=0;entryX=0.5;entryY=0;entryDx=0;entryDy=0;exitX=0.5;exitY=1;exitDx=0;exitDy=0;" edge="1" parent="1" source="tVKeyrfUWqHwYo1ynpqy-19" target="tVKeyrfUWqHwYo1ynpqy-21">
          <mxGeometry width="50" height="50" relative="1" as="geometry">
            <mxPoint x="775" y="-250" as="sourcePoint" />
            <mxPoint x="855" y="320" as="targetPoint" />
          </mxGeometry>
        </mxCell>
        <mxCell id="tVKeyrfUWqHwYo1ynpqy-23" value="" style="endArrow=classic;html=1;rounded=0;exitX=0.5;exitY=1;exitDx=0;exitDy=0;entryX=0.5;entryY=0;entryDx=0;entryDy=0;" edge="1" parent="1" source="tVKeyrfUWqHwYo1ynpqy-20" target="tVKeyrfUWqHwYo1ynpqy-21">
          <mxGeometry width="50" height="50" relative="1" as="geometry">
            <mxPoint x="805" y="370" as="sourcePoint" />
            <mxPoint x="855" y="320" as="targetPoint" />
          </mxGeometry>
        </mxCell>
        <mxCell id="tVKeyrfUWqHwYo1ynpqy-24" value="" style="endArrow=classic;html=1;rounded=0;exitX=0.5;exitY=1;exitDx=0;exitDy=0;entryX=0.5;entryY=0;entryDx=0;entryDy=0;" edge="1" parent="1" source="tVKeyrfUWqHwYo1ynpqy-21" target="tVKeyrfUWqHwYo1ynpqy-9">
          <mxGeometry width="50" height="50" relative="1" as="geometry">
            <mxPoint x="805" y="370" as="sourcePoint" />
            <mxPoint x="855" y="320" as="targetPoint" />
          </mxGeometry>
        </mxCell>
        <mxCell id="tVKeyrfUWqHwYo1ynpqy-26" value="Gravel" style="rounded=0;whiteSpace=wrap;html=1;" vertex="1" parent="1">
          <mxGeometry x="915" y="-180" width="120" height="60" as="geometry" />
        </mxCell>
        <mxCell id="tVKeyrfUWqHwYo1ynpqy-27" value="Flint" style="rounded=0;whiteSpace=wrap;html=1;" vertex="1" parent="1">
          <mxGeometry x="1005" y="80" width="120" height="60" as="geometry" />
        </mxCell>
        <mxCell id="tVKeyrfUWqHwYo1ynpqy-30" value="Mix" style="ellipse;whiteSpace=wrap;html=1;" vertex="1" parent="1">
          <mxGeometry x="915" y="230" width="120" height="80" as="geometry" />
        </mxCell>
        <mxCell id="tVKeyrfUWqHwYo1ynpqy-31" value="" style="endArrow=classic;html=1;rounded=0;exitX=0.5;exitY=1;exitDx=0;exitDy=0;entryX=0.5;entryY=0;entryDx=0;entryDy=0;" edge="1" parent="1" source="tVKeyrfUWqHwYo1ynpqy-26" target="tVKeyrfUWqHwYo1ynpqy-30">
          <mxGeometry width="50" height="50" relative="1" as="geometry">
            <mxPoint x="815" y="290" as="sourcePoint" />
            <mxPoint x="865" y="240" as="targetPoint" />
          </mxGeometry>
        </mxCell>
        <mxCell id="tVKeyrfUWqHwYo1ynpqy-32" value="" style="endArrow=classic;html=1;rounded=0;exitX=0.5;exitY=1;exitDx=0;exitDy=0;entryX=0.5;entryY=0;entryDx=0;entryDy=0;" edge="1" parent="1" source="tVKeyrfUWqHwYo1ynpqy-27" target="tVKeyrfUWqHwYo1ynpqy-30">
          <mxGeometry width="50" height="50" relative="1" as="geometry">
            <mxPoint x="815" y="290" as="sourcePoint" />
            <mxPoint x="865" y="240" as="targetPoint" />
          </mxGeometry>
        </mxCell>
        <mxCell id="tVKeyrfUWqHwYo1ynpqy-33" value="" style="endArrow=classic;html=1;rounded=0;exitX=0.5;exitY=1;exitDx=0;exitDy=0;entryX=0.5;entryY=0;entryDx=0;entryDy=0;" edge="1" parent="1" source="tVKeyrfUWqHwYo1ynpqy-30" target="tVKeyrfUWqHwYo1ynpqy-8">
          <mxGeometry width="50" height="50" relative="1" as="geometry">
            <mxPoint x="805" y="370" as="sourcePoint" />
            <mxPoint x="855" y="320" as="targetPoint" />
          </mxGeometry>
        </mxCell>
        <mxCell id="tVKeyrfUWqHwYo1ynpqy-34" value="Crush" style="ellipse;whiteSpace=wrap;html=1;" vertex="1" parent="1">
          <mxGeometry x="915" y="-290" width="120" height="80" as="geometry" />
        </mxCell>
        <mxCell id="tVKeyrfUWqHwYo1ynpqy-35" value="" style="endArrow=classic;html=1;rounded=0;exitX=0.5;exitY=1;exitDx=0;exitDy=0;" edge="1" parent="1" source="tVKeyrfUWqHwYo1ynpqy-19" target="tVKeyrfUWqHwYo1ynpqy-34">
          <mxGeometry width="50" height="50" relative="1" as="geometry">
            <mxPoint x="805" y="380" as="sourcePoint" />
            <mxPoint x="855" y="330" as="targetPoint" />
          </mxGeometry>
        </mxCell>
        <mxCell id="tVKeyrfUWqHwYo1ynpqy-36" value="" style="endArrow=classic;html=1;rounded=0;exitX=0.5;exitY=1;exitDx=0;exitDy=0;entryX=0.5;entryY=0;entryDx=0;entryDy=0;" edge="1" parent="1" source="tVKeyrfUWqHwYo1ynpqy-34" target="tVKeyrfUWqHwYo1ynpqy-26">
          <mxGeometry width="50" height="50" relative="1" as="geometry">
            <mxPoint x="855" y="330" as="sourcePoint" />
            <mxPoint x="805" y="380" as="targetPoint" />
          </mxGeometry>
        </mxCell>
        <mxCell id="tVKeyrfUWqHwYo1ynpqy-37" value="Crush" style="ellipse;whiteSpace=wrap;html=1;" vertex="1" parent="1">
          <mxGeometry x="1095" y="-50" width="120" height="80" as="geometry" />
        </mxCell>
        <mxCell id="tVKeyrfUWqHwYo1ynpqy-38" value="" style="endArrow=classic;html=1;rounded=0;exitX=0.75;exitY=1;exitDx=0;exitDy=0;entryX=0.5;entryY=0;entryDx=0;entryDy=0;" edge="1" parent="1" source="tVKeyrfUWqHwYo1ynpqy-26" target="tVKeyrfUWqHwYo1ynpqy-37">
          <mxGeometry width="50" height="50" relative="1" as="geometry">
            <mxPoint x="805" y="380" as="sourcePoint" />
            <mxPoint x="855" y="330" as="targetPoint" />
          </mxGeometry>
        </mxCell>
        <mxCell id="tVKeyrfUWqHwYo1ynpqy-39" value="Sand" style="rounded=0;whiteSpace=wrap;html=1;" vertex="1" parent="1">
          <mxGeometry x="1185" y="80" width="120" height="60" as="geometry" />
        </mxCell>
        <mxCell id="tVKeyrfUWqHwYo1ynpqy-40" value="" style="endArrow=classic;html=1;rounded=0;exitX=0.5;exitY=1;exitDx=0;exitDy=0;entryX=0.5;entryY=0;entryDx=0;entryDy=0;" edge="1" parent="1" source="tVKeyrfUWqHwYo1ynpqy-37" target="tVKeyrfUWqHwYo1ynpqy-39">
          <mxGeometry width="50" height="50" relative="1" as="geometry">
            <mxPoint x="805" y="380" as="sourcePoint" />
            <mxPoint x="855" y="330" as="targetPoint" />
          </mxGeometry>
        </mxCell>
        <mxCell id="tVKeyrfUWqHwYo1ynpqy-41" value="Haunt" style="ellipse;whiteSpace=wrap;html=1;" vertex="1" parent="1">
          <mxGeometry x="1185" y="180" width="120" height="80" as="geometry" />
        </mxCell>
        <mxCell id="tVKeyrfUWqHwYo1ynpqy-42" value="Soul Sand" style="rounded=0;whiteSpace=wrap;html=1;" vertex="1" parent="1">
          <mxGeometry x="1185" y="290" width="120" height="60" as="geometry" />
        </mxCell>
        <mxCell id="tVKeyrfUWqHwYo1ynpqy-43" value="Wash" style="ellipse;whiteSpace=wrap;html=1;" vertex="1" parent="1">
          <mxGeometry x="1185" y="380" width="120" height="80" as="geometry" />
        </mxCell>
        <mxCell id="tVKeyrfUWqHwYo1ynpqy-44" value="" style="endArrow=classic;html=1;rounded=0;exitX=0.5;exitY=1;exitDx=0;exitDy=0;entryX=0.5;entryY=0;entryDx=0;entryDy=0;" edge="1" parent="1" source="tVKeyrfUWqHwYo1ynpqy-39" target="tVKeyrfUWqHwYo1ynpqy-41">
          <mxGeometry width="50" height="50" relative="1" as="geometry">
            <mxPoint x="805" y="780" as="sourcePoint" />
            <mxPoint x="855" y="730" as="targetPoint" />
          </mxGeometry>
        </mxCell>
        <mxCell id="tVKeyrfUWqHwYo1ynpqy-45" value="" style="endArrow=classic;html=1;rounded=0;exitX=0.5;exitY=1;exitDx=0;exitDy=0;entryX=0.5;entryY=0;entryDx=0;entryDy=0;" edge="1" parent="1" source="tVKeyrfUWqHwYo1ynpqy-41" target="tVKeyrfUWqHwYo1ynpqy-42">
          <mxGeometry width="50" height="50" relative="1" as="geometry">
            <mxPoint x="815" y="790" as="sourcePoint" />
            <mxPoint x="865" y="740" as="targetPoint" />
          </mxGeometry>
        </mxCell>
        <mxCell id="tVKeyrfUWqHwYo1ynpqy-46" value="" style="endArrow=classic;html=1;rounded=0;exitX=0.5;exitY=1;exitDx=0;exitDy=0;entryX=0.5;entryY=0;entryDx=0;entryDy=0;" edge="1" parent="1" source="tVKeyrfUWqHwYo1ynpqy-42" target="tVKeyrfUWqHwYo1ynpqy-43">
          <mxGeometry width="50" height="50" relative="1" as="geometry">
            <mxPoint x="825" y="800" as="sourcePoint" />
            <mxPoint x="875" y="750" as="targetPoint" />
          </mxGeometry>
        </mxCell>
        <mxCell id="tVKeyrfUWqHwYo1ynpqy-47" value="" style="endArrow=classic;html=1;rounded=0;exitX=0.5;exitY=1;exitDx=0;exitDy=0;entryX=0.5;entryY=0;entryDx=0;entryDy=0;" edge="1" parent="1" source="tVKeyrfUWqHwYo1ynpqy-43" target="tVKeyrfUWqHwYo1ynpqy-20">
          <mxGeometry width="50" height="50" relative="1" as="geometry">
            <mxPoint x="835" y="810" as="sourcePoint" />
            <mxPoint x="885" y="760" as="targetPoint" />
          </mxGeometry>
        </mxCell>
        <mxCell id="tVKeyrfUWqHwYo1ynpqy-50" value="" style="endArrow=classic;html=1;rounded=0;exitX=0.5;exitY=1;exitDx=0;exitDy=0;entryX=0.5;entryY=0;entryDx=0;entryDy=0;" edge="1" parent="1" source="tVKeyrfUWqHwYo1ynpqy-37" target="tVKeyrfUWqHwYo1ynpqy-27">
          <mxGeometry width="50" height="50" relative="1" as="geometry">
            <mxPoint x="805" y="280" as="sourcePoint" />
            <mxPoint x="855" y="230" as="targetPoint" />
          </mxGeometry>
        </mxCell>
        <mxCell id="tVKeyrfUWqHwYo1ynpqy-53" value="" style="endArrow=classic;html=1;rounded=0;exitX=0.5;exitY=1;exitDx=0;exitDy=0;entryX=0.5;entryY=0;entryDx=0;entryDy=0;" edge="1" parent="1" source="tVKeyrfUWqHwYo1ynpqy-101" target="tVKeyrfUWqHwYo1ynpqy-19">
          <mxGeometry width="50" height="50" relative="1" as="geometry">
            <mxPoint x="825" y="-460" as="sourcePoint" />
            <mxPoint x="855" y="-370" as="targetPoint" />
          </mxGeometry>
        </mxCell>
        <mxCell id="tVKeyrfUWqHwYo1ynpqy-54" value="Coal" style="rounded=0;whiteSpace=wrap;html=1;" vertex="1" parent="1">
          <mxGeometry x="425" y="1040" width="120" height="60" as="geometry" />
        </mxCell>
        <mxCell id="tVKeyrfUWqHwYo1ynpqy-55" value="Gold&lt;div&gt;Nugget&lt;/div&gt;" style="rounded=0;whiteSpace=wrap;html=1;" vertex="1" parent="1">
          <mxGeometry x="595" y="1040" width="120" height="60" as="geometry" />
        </mxCell>
        <mxCell id="tVKeyrfUWqHwYo1ynpqy-56" value="Copper&lt;div&gt;Nugget&lt;/div&gt;" style="rounded=0;whiteSpace=wrap;html=1;" vertex="1" parent="1">
          <mxGeometry x="765" y="1040" width="120" height="60" as="geometry" />
        </mxCell>
        <mxCell id="tVKeyrfUWqHwYo1ynpqy-57" value="Zinc&lt;div&gt;Nugget&lt;/div&gt;" style="rounded=0;whiteSpace=wrap;html=1;" vertex="1" parent="1">
          <mxGeometry x="935" y="1040" width="120" height="60" as="geometry" />
        </mxCell>
        <mxCell id="tVKeyrfUWqHwYo1ynpqy-58" value="Iron&lt;br&gt;Nugget" style="rounded=0;whiteSpace=wrap;html=1;" vertex="1" parent="1">
          <mxGeometry x="1105" y="1040" width="120" height="60" as="geometry" />
        </mxCell>
        <mxCell id="tVKeyrfUWqHwYo1ynpqy-59" value="" style="endArrow=classic;html=1;rounded=0;exitX=0.5;exitY=1;exitDx=0;exitDy=0;entryX=0.5;entryY=0;entryDx=0;entryDy=0;" edge="1" parent="1" source="tVKeyrfUWqHwYo1ynpqy-11" target="tVKeyrfUWqHwYo1ynpqy-54">
          <mxGeometry width="50" height="50" relative="1" as="geometry">
            <mxPoint x="705" y="1000" as="sourcePoint" />
            <mxPoint x="755" y="950" as="targetPoint" />
          </mxGeometry>
        </mxCell>
        <mxCell id="tVKeyrfUWqHwYo1ynpqy-60" value="" style="endArrow=classic;html=1;rounded=0;exitX=0.5;exitY=1;exitDx=0;exitDy=0;entryX=0.5;entryY=0;entryDx=0;entryDy=0;" edge="1" parent="1" source="tVKeyrfUWqHwYo1ynpqy-11" target="tVKeyrfUWqHwYo1ynpqy-55">
          <mxGeometry width="50" height="50" relative="1" as="geometry">
            <mxPoint x="715" y="1010" as="sourcePoint" />
            <mxPoint x="765" y="960" as="targetPoint" />
          </mxGeometry>
        </mxCell>
        <mxCell id="tVKeyrfUWqHwYo1ynpqy-61" value="" style="endArrow=classic;html=1;rounded=0;exitX=0.5;exitY=1;exitDx=0;exitDy=0;entryX=0.5;entryY=0;entryDx=0;entryDy=0;" edge="1" parent="1" source="tVKeyrfUWqHwYo1ynpqy-11" target="tVKeyrfUWqHwYo1ynpqy-56">
          <mxGeometry width="50" height="50" relative="1" as="geometry">
            <mxPoint x="725" y="1020" as="sourcePoint" />
            <mxPoint x="775" y="970" as="targetPoint" />
          </mxGeometry>
        </mxCell>
        <mxCell id="tVKeyrfUWqHwYo1ynpqy-62" value="" style="endArrow=classic;html=1;rounded=0;exitX=0.5;exitY=1;exitDx=0;exitDy=0;entryX=0.5;entryY=0;entryDx=0;entryDy=0;" edge="1" parent="1" source="tVKeyrfUWqHwYo1ynpqy-11" target="tVKeyrfUWqHwYo1ynpqy-57">
          <mxGeometry width="50" height="50" relative="1" as="geometry">
            <mxPoint x="775" y="1080" as="sourcePoint" />
            <mxPoint x="785" y="980" as="targetPoint" />
          </mxGeometry>
        </mxCell>
        <mxCell id="tVKeyrfUWqHwYo1ynpqy-63" value="" style="endArrow=classic;html=1;rounded=0;exitX=0.5;exitY=1;exitDx=0;exitDy=0;entryX=0.5;entryY=0;entryDx=0;entryDy=0;" edge="1" parent="1" source="tVKeyrfUWqHwYo1ynpqy-11" target="tVKeyrfUWqHwYo1ynpqy-58">
          <mxGeometry width="50" height="50" relative="1" as="geometry">
            <mxPoint x="815" y="1060" as="sourcePoint" />
            <mxPoint x="795" y="990" as="targetPoint" />
          </mxGeometry>
        </mxCell>
        <mxCell id="tVKeyrfUWqHwYo1ynpqy-64" value="Compact" style="ellipse;whiteSpace=wrap;html=1;" vertex="1" parent="1">
          <mxGeometry x="425" y="1150" width="120" height="80" as="geometry" />
        </mxCell>
        <mxCell id="tVKeyrfUWqHwYo1ynpqy-65" value="Compact" style="ellipse;whiteSpace=wrap;html=1;" vertex="1" parent="1">
          <mxGeometry x="595" y="1150" width="120" height="80" as="geometry" />
        </mxCell>
        <mxCell id="tVKeyrfUWqHwYo1ynpqy-66" value="Compact" style="ellipse;whiteSpace=wrap;html=1;" vertex="1" parent="1">
          <mxGeometry x="765" y="1150" width="120" height="80" as="geometry" />
        </mxCell>
        <mxCell id="tVKeyrfUWqHwYo1ynpqy-67" value="Compact" style="ellipse;whiteSpace=wrap;html=1;" vertex="1" parent="1">
          <mxGeometry x="935" y="1150" width="120" height="80" as="geometry" />
        </mxCell>
        <mxCell id="tVKeyrfUWqHwYo1ynpqy-68" value="Compact" style="ellipse;whiteSpace=wrap;html=1;" vertex="1" parent="1">
          <mxGeometry x="1105" y="1150" width="120" height="80" as="geometry" />
        </mxCell>
        <mxCell id="tVKeyrfUWqHwYo1ynpqy-69" value="Coal&lt;div&gt;Block&lt;/div&gt;" style="rounded=0;whiteSpace=wrap;html=1;" vertex="1" parent="1">
          <mxGeometry x="425" y="1280" width="120" height="60" as="geometry" />
        </mxCell>
        <mxCell id="tVKeyrfUWqHwYo1ynpqy-70" value="Gold&lt;div&gt;Ingot&lt;/div&gt;" style="rounded=0;whiteSpace=wrap;html=1;" vertex="1" parent="1">
          <mxGeometry x="595" y="1280" width="120" height="60" as="geometry" />
        </mxCell>
        <mxCell id="tVKeyrfUWqHwYo1ynpqy-71" value="Copper&lt;div&gt;Ingot&lt;/div&gt;" style="rounded=0;whiteSpace=wrap;html=1;" vertex="1" parent="1">
          <mxGeometry x="765" y="1280" width="120" height="60" as="geometry" />
        </mxCell>
        <mxCell id="tVKeyrfUWqHwYo1ynpqy-72" value="Zinc&lt;div&gt;&lt;div&gt;Ingot&lt;/div&gt;&lt;/div&gt;" style="rounded=0;whiteSpace=wrap;html=1;" vertex="1" parent="1">
          <mxGeometry x="935" y="1280" width="120" height="60" as="geometry" />
        </mxCell>
        <mxCell id="tVKeyrfUWqHwYo1ynpqy-73" value="Iron&lt;div&gt;Ingot&lt;/div&gt;" style="rounded=0;whiteSpace=wrap;html=1;" vertex="1" parent="1">
          <mxGeometry x="1105" y="1280" width="120" height="60" as="geometry" />
        </mxCell>
        <mxCell id="tVKeyrfUWqHwYo1ynpqy-74" value="" style="endArrow=classic;html=1;rounded=0;exitX=0.5;exitY=1;exitDx=0;exitDy=0;entryX=0.5;entryY=0;entryDx=0;entryDy=0;" edge="1" parent="1" source="tVKeyrfUWqHwYo1ynpqy-54" target="tVKeyrfUWqHwYo1ynpqy-64">
          <mxGeometry width="50" height="50" relative="1" as="geometry">
            <mxPoint x="515" y="1130" as="sourcePoint" />
            <mxPoint x="755" y="1070" as="targetPoint" />
          </mxGeometry>
        </mxCell>
        <mxCell id="tVKeyrfUWqHwYo1ynpqy-76" value="" style="endArrow=classic;html=1;rounded=0;exitX=0.5;exitY=1;exitDx=0;exitDy=0;entryX=0.5;entryY=0;entryDx=0;entryDy=0;" edge="1" parent="1" source="tVKeyrfUWqHwYo1ynpqy-55" target="tVKeyrfUWqHwYo1ynpqy-65">
          <mxGeometry width="50" height="50" relative="1" as="geometry">
            <mxPoint x="705" y="1120" as="sourcePoint" />
            <mxPoint x="755" y="1070" as="targetPoint" />
          </mxGeometry>
        </mxCell>
        <mxCell id="tVKeyrfUWqHwYo1ynpqy-77" value="" style="endArrow=classic;html=1;rounded=0;exitX=0.5;exitY=1;exitDx=0;exitDy=0;entryX=0.5;entryY=0;entryDx=0;entryDy=0;" edge="1" parent="1" source="tVKeyrfUWqHwYo1ynpqy-56" target="tVKeyrfUWqHwYo1ynpqy-66">
          <mxGeometry width="50" height="50" relative="1" as="geometry">
            <mxPoint x="715" y="1130" as="sourcePoint" />
            <mxPoint x="765" y="1080" as="targetPoint" />
          </mxGeometry>
        </mxCell>
        <mxCell id="tVKeyrfUWqHwYo1ynpqy-78" value="" style="endArrow=classic;html=1;rounded=0;exitX=0.5;exitY=1;exitDx=0;exitDy=0;entryX=0.5;entryY=0;entryDx=0;entryDy=0;" edge="1" parent="1" source="tVKeyrfUWqHwYo1ynpqy-57" target="tVKeyrfUWqHwYo1ynpqy-67">
          <mxGeometry width="50" height="50" relative="1" as="geometry">
            <mxPoint x="725" y="1140" as="sourcePoint" />
            <mxPoint x="775" y="1090" as="targetPoint" />
          </mxGeometry>
        </mxCell>
        <mxCell id="tVKeyrfUWqHwYo1ynpqy-79" value="" style="endArrow=classic;html=1;rounded=0;exitX=0.5;exitY=1;exitDx=0;exitDy=0;entryX=0.5;entryY=0;entryDx=0;entryDy=0;" edge="1" parent="1" source="tVKeyrfUWqHwYo1ynpqy-58" target="tVKeyrfUWqHwYo1ynpqy-68">
          <mxGeometry width="50" height="50" relative="1" as="geometry">
            <mxPoint x="735" y="1150" as="sourcePoint" />
            <mxPoint x="785" y="1100" as="targetPoint" />
          </mxGeometry>
        </mxCell>
        <mxCell id="tVKeyrfUWqHwYo1ynpqy-80" value="" style="endArrow=classic;html=1;rounded=0;exitX=0.5;exitY=1;exitDx=0;exitDy=0;entryX=0.5;entryY=0;entryDx=0;entryDy=0;" edge="1" parent="1" source="tVKeyrfUWqHwYo1ynpqy-64" target="tVKeyrfUWqHwYo1ynpqy-69">
          <mxGeometry width="50" height="50" relative="1" as="geometry">
            <mxPoint x="745" y="1160" as="sourcePoint" />
            <mxPoint x="795" y="1110" as="targetPoint" />
          </mxGeometry>
        </mxCell>
        <mxCell id="tVKeyrfUWqHwYo1ynpqy-81" value="" style="endArrow=classic;html=1;rounded=0;exitX=0.5;exitY=1;exitDx=0;exitDy=0;entryX=0.5;entryY=0;entryDx=0;entryDy=0;" edge="1" parent="1" source="tVKeyrfUWqHwYo1ynpqy-65" target="tVKeyrfUWqHwYo1ynpqy-70">
          <mxGeometry width="50" height="50" relative="1" as="geometry">
            <mxPoint x="495" y="1240" as="sourcePoint" />
            <mxPoint x="495" y="1290" as="targetPoint" />
          </mxGeometry>
        </mxCell>
        <mxCell id="tVKeyrfUWqHwYo1ynpqy-82" value="" style="endArrow=classic;html=1;rounded=0;exitX=0.5;exitY=1;exitDx=0;exitDy=0;entryX=0.5;entryY=0;entryDx=0;entryDy=0;" edge="1" parent="1" source="tVKeyrfUWqHwYo1ynpqy-66" target="tVKeyrfUWqHwYo1ynpqy-71">
          <mxGeometry width="50" height="50" relative="1" as="geometry">
            <mxPoint x="505" y="1250" as="sourcePoint" />
            <mxPoint x="505" y="1300" as="targetPoint" />
          </mxGeometry>
        </mxCell>
        <mxCell id="tVKeyrfUWqHwYo1ynpqy-83" value="" style="endArrow=classic;html=1;rounded=0;exitX=0.5;exitY=1;exitDx=0;exitDy=0;entryX=0.5;entryY=0;entryDx=0;entryDy=0;" edge="1" parent="1" source="tVKeyrfUWqHwYo1ynpqy-67" target="tVKeyrfUWqHwYo1ynpqy-72">
          <mxGeometry width="50" height="50" relative="1" as="geometry">
            <mxPoint x="515" y="1260" as="sourcePoint" />
            <mxPoint x="515" y="1310" as="targetPoint" />
          </mxGeometry>
        </mxCell>
        <mxCell id="tVKeyrfUWqHwYo1ynpqy-84" value="" style="endArrow=classic;html=1;rounded=0;exitX=0.5;exitY=1;exitDx=0;exitDy=0;entryX=0.5;entryY=0;entryDx=0;entryDy=0;" edge="1" parent="1" source="tVKeyrfUWqHwYo1ynpqy-68" target="tVKeyrfUWqHwYo1ynpqy-73">
          <mxGeometry width="50" height="50" relative="1" as="geometry">
            <mxPoint x="525" y="1270" as="sourcePoint" />
            <mxPoint x="525" y="1320" as="targetPoint" />
          </mxGeometry>
        </mxCell>
        <mxCell id="tVKeyrfUWqHwYo1ynpqy-85" value="Compact" style="ellipse;whiteSpace=wrap;html=1;" vertex="1" parent="1">
          <mxGeometry x="595" y="1390" width="120" height="80" as="geometry" />
        </mxCell>
        <mxCell id="tVKeyrfUWqHwYo1ynpqy-86" value="Compact" style="ellipse;whiteSpace=wrap;html=1;" vertex="1" parent="1">
          <mxGeometry x="765" y="1390" width="120" height="80" as="geometry" />
        </mxCell>
        <mxCell id="tVKeyrfUWqHwYo1ynpqy-87" value="Compact" style="ellipse;whiteSpace=wrap;html=1;" vertex="1" parent="1">
          <mxGeometry x="935" y="1390" width="120" height="80" as="geometry" />
        </mxCell>
        <mxCell id="tVKeyrfUWqHwYo1ynpqy-88" value="Compact" style="ellipse;whiteSpace=wrap;html=1;" vertex="1" parent="1">
          <mxGeometry x="1105" y="1390" width="120" height="80" as="geometry" />
        </mxCell>
        <mxCell id="tVKeyrfUWqHwYo1ynpqy-89" value="Gold&lt;div&gt;Block&lt;/div&gt;" style="rounded=0;whiteSpace=wrap;html=1;" vertex="1" parent="1">
          <mxGeometry x="595" y="1520" width="120" height="60" as="geometry" />
        </mxCell>
        <mxCell id="tVKeyrfUWqHwYo1ynpqy-90" value="Copper&lt;div&gt;Block&lt;/div&gt;" style="rounded=0;whiteSpace=wrap;html=1;" vertex="1" parent="1">
          <mxGeometry x="765" y="1520" width="120" height="60" as="geometry" />
        </mxCell>
        <mxCell id="tVKeyrfUWqHwYo1ynpqy-91" value="Zinc&lt;div&gt;&lt;div&gt;Block&lt;/div&gt;&lt;/div&gt;" style="rounded=0;whiteSpace=wrap;html=1;" vertex="1" parent="1">
          <mxGeometry x="935" y="1520" width="120" height="60" as="geometry" />
        </mxCell>
        <mxCell id="tVKeyrfUWqHwYo1ynpqy-92" value="Iron&lt;div&gt;Block&lt;/div&gt;" style="rounded=0;whiteSpace=wrap;html=1;" vertex="1" parent="1">
          <mxGeometry x="1105" y="1520" width="120" height="60" as="geometry" />
        </mxCell>
        <mxCell id="tVKeyrfUWqHwYo1ynpqy-93" value="" style="endArrow=classic;html=1;rounded=0;entryX=0.5;entryY=0;entryDx=0;entryDy=0;exitX=0.5;exitY=1;exitDx=0;exitDy=0;" edge="1" parent="1" target="tVKeyrfUWqHwYo1ynpqy-85" source="tVKeyrfUWqHwYo1ynpqy-70">
          <mxGeometry width="50" height="50" relative="1" as="geometry">
            <mxPoint x="545" y="1390" as="sourcePoint" />
            <mxPoint x="755" y="1310" as="targetPoint" />
          </mxGeometry>
        </mxCell>
        <mxCell id="tVKeyrfUWqHwYo1ynpqy-94" value="" style="endArrow=classic;html=1;rounded=0;entryX=0.5;entryY=0;entryDx=0;entryDy=0;exitX=0.5;exitY=1;exitDx=0;exitDy=0;" edge="1" parent="1" target="tVKeyrfUWqHwYo1ynpqy-86" source="tVKeyrfUWqHwYo1ynpqy-71">
          <mxGeometry width="50" height="50" relative="1" as="geometry">
            <mxPoint x="825" y="1360" as="sourcePoint" />
            <mxPoint x="765" y="1320" as="targetPoint" />
          </mxGeometry>
        </mxCell>
        <mxCell id="tVKeyrfUWqHwYo1ynpqy-95" value="" style="endArrow=classic;html=1;rounded=0;exitX=0.5;exitY=1;exitDx=0;exitDy=0;entryX=0.5;entryY=0;entryDx=0;entryDy=0;" edge="1" parent="1" target="tVKeyrfUWqHwYo1ynpqy-87">
          <mxGeometry width="50" height="50" relative="1" as="geometry">
            <mxPoint x="995" y="1340" as="sourcePoint" />
            <mxPoint x="775" y="1330" as="targetPoint" />
          </mxGeometry>
        </mxCell>
        <mxCell id="tVKeyrfUWqHwYo1ynpqy-96" value="" style="endArrow=classic;html=1;rounded=0;exitX=0.5;exitY=1;exitDx=0;exitDy=0;entryX=0.5;entryY=0;entryDx=0;entryDy=0;" edge="1" parent="1" target="tVKeyrfUWqHwYo1ynpqy-88">
          <mxGeometry width="50" height="50" relative="1" as="geometry">
            <mxPoint x="1165" y="1340" as="sourcePoint" />
            <mxPoint x="785" y="1340" as="targetPoint" />
          </mxGeometry>
        </mxCell>
        <mxCell id="tVKeyrfUWqHwYo1ynpqy-97" value="" style="endArrow=classic;html=1;rounded=0;exitX=0.5;exitY=1;exitDx=0;exitDy=0;entryX=0.5;entryY=0;entryDx=0;entryDy=0;" edge="1" parent="1" source="tVKeyrfUWqHwYo1ynpqy-85" target="tVKeyrfUWqHwYo1ynpqy-89">
          <mxGeometry width="50" height="50" relative="1" as="geometry">
            <mxPoint x="495" y="1480" as="sourcePoint" />
            <mxPoint x="495" y="1530" as="targetPoint" />
          </mxGeometry>
        </mxCell>
        <mxCell id="tVKeyrfUWqHwYo1ynpqy-98" value="" style="endArrow=classic;html=1;rounded=0;exitX=0.5;exitY=1;exitDx=0;exitDy=0;entryX=0.5;entryY=0;entryDx=0;entryDy=0;" edge="1" parent="1" source="tVKeyrfUWqHwYo1ynpqy-86" target="tVKeyrfUWqHwYo1ynpqy-90">
          <mxGeometry width="50" height="50" relative="1" as="geometry">
            <mxPoint x="505" y="1490" as="sourcePoint" />
            <mxPoint x="505" y="1540" as="targetPoint" />
          </mxGeometry>
        </mxCell>
        <mxCell id="tVKeyrfUWqHwYo1ynpqy-99" value="" style="endArrow=classic;html=1;rounded=0;exitX=0.5;exitY=1;exitDx=0;exitDy=0;entryX=0.5;entryY=0;entryDx=0;entryDy=0;" edge="1" parent="1" source="tVKeyrfUWqHwYo1ynpqy-87" target="tVKeyrfUWqHwYo1ynpqy-91">
          <mxGeometry width="50" height="50" relative="1" as="geometry">
            <mxPoint x="515" y="1500" as="sourcePoint" />
            <mxPoint x="515" y="1550" as="targetPoint" />
          </mxGeometry>
        </mxCell>
        <mxCell id="tVKeyrfUWqHwYo1ynpqy-100" value="" style="endArrow=classic;html=1;rounded=0;exitX=0.5;exitY=1;exitDx=0;exitDy=0;entryX=0.5;entryY=0;entryDx=0;entryDy=0;" edge="1" parent="1" source="tVKeyrfUWqHwYo1ynpqy-88" target="tVKeyrfUWqHwYo1ynpqy-92">
          <mxGeometry width="50" height="50" relative="1" as="geometry">
            <mxPoint x="525" y="1510" as="sourcePoint" />
            <mxPoint x="525" y="1560" as="targetPoint" />
          </mxGeometry>
        </mxCell>
        <mxCell id="tVKeyrfUWqHwYo1ynpqy-101" value="Cobblestone&lt;div&gt;Generator&lt;/div&gt;" style="shape=step;perimeter=stepPerimeter;whiteSpace=wrap;html=1;fixedSize=1;" vertex="1" parent="1">
          <mxGeometry x="765" y="-530" width="120" height="80" as="geometry" />
        </mxCell>
      </root>
    </mxGraphModel>
  </diagram>
</mxfile>
